<?xml version="1.0" standalone="no"?>
<!DOCTYPE svg PUBLIC "-//W3C//DTD SVG 20010904//EN"
 "http://www.w3.org/TR/2001/REC-SVG-20010904/DTD/svg10.dtd">
<svg version="1.0" xmlns="http://www.w3.org/2000/svg"
 width="256.000000pt" height="256.000000pt" viewBox="0 0 256.000000 256.000000"
 preserveAspectRatio="xMidYMid meet">
<metadata>
Created by potrace 1.11, written by Peter Selinger 2001-2013
</metadata>
<g transform="translate(0.000000,256.000000) scale(0.100000,-0.100000)"
fill="#000000" stroke="none">
<path d="M979 2512 l-137 -3 -81 -222 c-45 -122 -86 -231 -91 -242 -5 -11
-111 -297 -235 -635 -124 -338 -232 -631 -240 -650 -17 -40 -175 -470 -175
-475 0 -1 12 -6 28 -9 24 -6 60 -17 262 -80 30 -10 143 -45 250 -78 l195 -60
198 -2 c109 -1 202 1 206 4 5 3 38 90 73 195 l65 189 124 1 c68 0 129 -1 135
-3 6 -2 22 -39 35 -82 l24 -79 70 -32 c39 -18 117 -55 175 -82 58 -27 138 -64
179 -83 l73 -34 214 0 c118 0 214 1 214 3 0 1 -10 30 -21 62 -54 153 -192 554
-201 585 -6 19 -14 40 -18 45 -4 6 -10 21 -13 35 -3 14 -43 135 -90 270 -100
287 -247 713 -283 819 -14 41 -31 79 -37 86 -20 20 -201 216 -218 236 -32 37
-195 216 -246 269 l-52 55 -123 0 c-68 0 -184 -1 -259 -3z"/>
</g>
</svg>
